<svg width="210" height="67" viewBox="0 0 210 67" fill="none" xmlns="http://www.w3.org/2000/svg">
<rect x="0.5" y="0.5" width="209" height="66" rx="14.5" fill="white" stroke="#9F3287"/>
<path d="M72.99 34.5811L84.4011 34.1855V34.8154L81.9695 34.9033L81.2077 44.8057L79.4499 42.2861C78.9323 42.8623 78.4001 43.3164 77.8532 43.6484C77.3161 43.9707 76.7888 44.21 76.2712 44.3662C75.7634 44.5322 75.28 44.6348 74.821 44.6738C74.362 44.7227 73.9519 44.7471 73.5905 44.7471H73.1804C72.8581 44.7471 72.4626 44.7275 71.9939 44.6885C71.5251 44.6592 71.0173 44.5908 70.4704 44.4834C69.9333 44.376 69.3718 44.2148 68.7859 44C68.1999 43.7949 67.6237 43.5215 67.0573 43.1797C66.5007 42.8281 65.9685 42.3984 65.4607 41.8906C64.9529 41.3828 64.5085 40.7773 64.1277 40.0742C63.7468 39.3613 63.4441 38.541 63.2195 37.6133C62.9948 36.6758 62.8825 35.6064 62.8825 34.4053C62.8825 33.2041 62.99 32.125 63.2048 31.168C63.4196 30.2109 63.7126 29.3613 64.0837 28.6191C64.4646 27.8672 64.9089 27.2178 65.4167 26.6709C65.9245 26.1143 66.4665 25.6406 67.0427 25.25C67.6286 24.8594 68.2292 24.5371 68.8445 24.2832C69.4695 24.0293 70.0896 23.8291 70.7048 23.6826C71.32 23.5361 71.9109 23.4385 72.4773 23.3896C73.0534 23.3311 73.5759 23.3018 74.0446 23.3018C75.2556 23.3018 76.3542 23.4678 77.3405 23.7998C78.3366 24.1221 79.1862 24.5566 79.8894 25.1035C80.6023 25.6406 81.1491 26.2607 81.53 26.9639C81.9206 27.667 82.1159 28.3945 82.1159 29.1465C82.1159 29.5078 82.0476 29.8447 81.9109 30.1572C81.7741 30.46 81.5935 30.7236 81.3689 30.9482C81.154 31.1729 80.9001 31.3486 80.6071 31.4756C80.3142 31.6025 80.0163 31.666 79.7136 31.666C79.4011 31.6562 79.0837 31.5781 78.7614 31.4316C78.4489 31.2852 78.156 31.0801 77.8825 30.8164C77.6189 30.5527 77.3894 30.2305 77.1941 29.8496C77.0085 29.4688 76.8864 29.0439 76.8279 28.5752L76.74 27.8867C76.6911 27.4668 76.6179 27.0273 76.5202 26.5684C76.4226 26.1094 76.2761 25.6846 76.0808 25.2939C75.8952 24.8936 75.6511 24.5615 75.3484 24.2979C75.0456 24.0244 74.6599 23.873 74.1911 23.8438H74.0446C73.6345 23.8438 73.2097 23.9219 72.7702 24.0781C72.3308 24.2246 71.8962 24.4736 71.4665 24.8252C71.0466 25.167 70.6462 25.6113 70.2654 26.1582C69.8943 26.7051 69.5622 27.374 69.2693 28.165C68.9861 28.9463 68.7614 29.8643 68.5954 30.9189C68.4294 31.9639 68.3464 33.1553 68.3464 34.4932C68.3464 35.8311 68.4196 36.998 68.5661 37.9941C68.7224 38.9902 68.9226 39.8496 69.1667 40.5723C69.4206 41.2949 69.7136 41.8906 70.0456 42.3594C70.3777 42.8281 70.7195 43.1992 71.071 43.4727C71.4323 43.7461 71.7937 43.9365 72.155 44.0439C72.5163 44.1514 72.8581 44.2051 73.1804 44.2051H73.4734C74.1374 44.1367 74.738 43.8486 75.2751 43.3408C75.4997 43.126 75.7195 42.8525 75.9343 42.5205C76.1491 42.1885 76.3396 41.7832 76.5056 41.3047C76.6814 40.8262 76.8181 40.2598 76.9157 39.6055C77.0232 38.9512 77.0769 38.1943 77.0769 37.335C77.0769 37.0029 77.0622 36.6416 77.0329 36.251C77.0134 35.8604 76.989 35.4551 76.9597 35.0352L72.99 35.1523V34.5811ZM95.3874 32.3252C96.9011 32.4912 98.1853 32.7695 99.24 33.1602C100.295 33.5508 101.149 34.0195 101.803 34.5664C102.467 35.1035 102.946 35.7041 103.239 36.3682C103.542 37.0225 103.693 37.7061 103.693 38.4189C103.693 39.2393 103.561 39.9619 103.298 40.5869C103.034 41.2119 102.682 41.7637 102.243 42.2422C101.813 42.7109 101.315 43.1064 100.749 43.4287C100.192 43.751 99.6159 44.0098 99.0202 44.2051C98.4343 44.4102 97.8532 44.5566 97.2771 44.6445C96.7009 44.7422 96.1833 44.7959 95.7243 44.8057H95.3581C94.8698 44.7959 94.3083 44.752 93.6736 44.6738C93.0486 44.6055 92.404 44.4932 91.74 44.3369C91.0857 44.1807 90.4411 43.9805 89.8064 43.7363C89.1716 43.4824 88.6052 43.1699 88.1071 42.7988C87.6091 42.4277 87.2087 41.9883 86.906 41.4805C86.6032 40.9727 86.4519 40.3818 86.4519 39.708C86.4519 39.3467 86.5105 39.0293 86.6277 38.7559C86.7448 38.4824 86.906 38.2529 87.1111 38.0674C87.3161 37.8721 87.5505 37.7207 87.8142 37.6133C88.0876 37.5059 88.3806 37.4424 88.6931 37.4229C89.0739 37.4229 89.4255 37.5059 89.7478 37.6719C90.0798 37.8281 90.3679 38.0527 90.612 38.3457C90.8562 38.6289 91.0515 38.9756 91.198 39.3857C91.3542 39.7861 91.4421 40.2354 91.4616 40.7334C91.4812 41.1338 91.5739 41.5439 91.74 41.9639C91.906 42.3838 92.1501 42.7646 92.4724 43.1064C92.7946 43.4482 93.195 43.7266 93.6736 43.9414C94.1521 44.1562 94.7136 44.2637 95.3581 44.2637C95.8659 44.2637 96.3249 44.1611 96.7351 43.9561C97.155 43.751 97.5114 43.4775 97.8044 43.1357C98.0974 42.7939 98.322 42.3984 98.4782 41.9492C98.6345 41.4902 98.7126 41.0117 98.7126 40.5137C98.7126 40.0645 98.6345 39.6201 98.4782 39.1807C98.322 38.7412 98.0779 38.3506 97.7458 38.0088C97.4138 37.6572 96.989 37.3691 96.4714 37.1445C95.9538 36.9199 95.3337 36.793 94.6111 36.7637C93.1364 36.6953 91.8767 36.4756 90.8318 36.1045C89.7966 35.7334 88.947 35.2549 88.2829 34.6689C87.6189 34.0732 87.1306 33.3945 86.8181 32.6328C86.5154 31.8711 86.364 31.0703 86.364 30.2305C86.364 29.3223 86.5007 28.5264 86.7741 27.8428C87.0476 27.1494 87.4089 26.5537 87.8581 26.0557C88.3171 25.5479 88.8396 25.1279 89.4255 24.7959C90.0114 24.4541 90.6169 24.1807 91.2419 23.9756C91.8767 23.7705 92.5017 23.6289 93.1169 23.5508C93.7419 23.4629 94.3181 23.4189 94.8454 23.4189H95.0212C95.5095 23.4287 96.0515 23.4727 96.6472 23.5508C97.2527 23.6191 97.863 23.7314 98.4782 23.8877C99.1032 24.0439 99.7038 24.249 100.28 24.5029C100.866 24.7568 101.384 25.0693 101.833 25.4404C102.292 25.8115 102.658 26.251 102.931 26.7588C103.205 27.2568 103.342 27.833 103.342 28.4873C103.342 28.8682 103.278 29.2002 103.151 29.4834C103.024 29.7666 102.853 30.0059 102.638 30.2012C102.433 30.3867 102.189 30.5283 101.906 30.626C101.623 30.7236 101.33 30.7725 101.027 30.7725C100.656 30.7725 100.309 30.6895 99.987 30.5234C99.6648 30.3574 99.3816 30.1279 99.1374 29.835C98.903 29.542 98.7126 29.1953 98.5661 28.7949C98.4294 28.3848 98.3611 27.9355 98.3611 27.4473C98.3611 27.0273 98.3073 26.6123 98.1999 26.2021C98.0925 25.792 97.907 25.4258 97.6433 25.1035C97.3894 24.7715 97.0476 24.5029 96.6179 24.2979C96.1882 24.0928 95.656 23.9805 95.0212 23.9609H94.8747C94.3962 23.9805 93.9519 24.1221 93.5417 24.3857C93.1413 24.6396 92.7946 24.9766 92.5017 25.3965C92.2087 25.8164 91.9792 26.29 91.8132 26.8174C91.657 27.335 91.5788 27.8623 91.5788 28.3994C91.5788 28.8682 91.6472 29.3223 91.7839 29.7617C91.9304 30.2012 92.155 30.6016 92.4577 30.9629C92.7702 31.3145 93.1657 31.6123 93.6443 31.8564C94.1228 32.1006 94.7038 32.2568 95.3874 32.3252ZM115.749 32.3252C117.262 32.4912 118.547 32.7695 119.601 33.1602C120.656 33.5508 121.51 34.0195 122.165 34.5664C122.829 35.1035 123.307 35.7041 123.6 36.3682C123.903 37.0225 124.054 37.7061 124.054 38.4189C124.054 39.2393 123.923 39.9619 123.659 40.5869C123.395 41.2119 123.044 41.7637 122.604 42.2422C122.175 42.7109 121.676 43.1064 121.11 43.4287C120.553 43.751 119.977 44.0098 119.382 44.2051C118.796 44.4102 118.215 44.5566 117.638 44.6445C117.062 44.7422 116.545 44.7959 116.086 44.8057H115.719C115.231 44.7959 114.67 44.752 114.035 44.6738C113.41 44.6055 112.765 44.4932 112.101 44.3369C111.447 44.1807 110.802 43.9805 110.168 43.7363C109.533 43.4824 108.967 43.1699 108.468 42.7988C107.97 42.4277 107.57 41.9883 107.267 41.4805C106.965 40.9727 106.813 40.3818 106.813 39.708C106.813 39.3467 106.872 39.0293 106.989 38.7559C107.106 38.4824 107.267 38.2529 107.472 38.0674C107.677 37.8721 107.912 37.7207 108.176 37.6133C108.449 37.5059 108.742 37.4424 109.054 37.4229C109.435 37.4229 109.787 37.5059 110.109 37.6719C110.441 37.8281 110.729 38.0527 110.973 38.3457C111.217 38.6289 111.413 38.9756 111.559 39.3857C111.716 39.7861 111.803 40.2354 111.823 40.7334C111.842 41.1338 111.935 41.5439 112.101 41.9639C112.267 42.3838 112.511 42.7646 112.834 43.1064C113.156 43.4482 113.556 43.7266 114.035 43.9414C114.513 44.1562 115.075 44.2637 115.719 44.2637C116.227 44.2637 116.686 44.1611 117.096 43.9561C117.516 43.751 117.873 43.4775 118.166 43.1357C118.459 42.7939 118.683 42.3984 118.84 41.9492C118.996 41.4902 119.074 41.0117 119.074 40.5137C119.074 40.0645 118.996 39.6201 118.84 39.1807C118.683 38.7412 118.439 38.3506 118.107 38.0088C117.775 37.6572 117.35 37.3691 116.833 37.1445C116.315 36.9199 115.695 36.793 114.972 36.7637C113.498 36.6953 112.238 36.4756 111.193 36.1045C110.158 35.7334 109.308 35.2549 108.644 34.6689C107.98 34.0732 107.492 33.3945 107.179 32.6328C106.877 31.8711 106.725 31.0703 106.725 30.2305C106.725 29.3223 106.862 28.5264 107.135 27.8428C107.409 27.1494 107.77 26.5537 108.219 26.0557C108.678 25.5479 109.201 25.1279 109.787 24.7959C110.373 24.4541 110.978 24.1807 111.603 23.9756C112.238 23.7705 112.863 23.6289 113.478 23.5508C114.103 23.4629 114.679 23.4189 115.207 23.4189H115.383C115.871 23.4287 116.413 23.4727 117.009 23.5508C117.614 23.6191 118.224 23.7314 118.84 23.8877C119.465 24.0439 120.065 24.249 120.641 24.5029C121.227 24.7568 121.745 25.0693 122.194 25.4404C122.653 25.8115 123.019 26.251 123.293 26.7588C123.566 27.2568 123.703 27.833 123.703 28.4873C123.703 28.8682 123.639 29.2002 123.512 29.4834C123.385 29.7666 123.215 30.0059 123 30.2012C122.795 30.3867 122.551 30.5283 122.267 30.626C121.984 30.7236 121.691 30.7725 121.388 30.7725C121.017 30.7725 120.671 30.6895 120.348 30.5234C120.026 30.3574 119.743 30.1279 119.499 29.835C119.264 29.542 119.074 29.1953 118.927 28.7949C118.791 28.3848 118.722 27.9355 118.722 27.4473C118.722 27.0273 118.669 26.6123 118.561 26.2021C118.454 25.792 118.268 25.4258 118.005 25.1035C117.751 24.7715 117.409 24.5029 116.979 24.2979C116.55 24.0928 116.017 23.9805 115.383 23.9609H115.236C114.758 23.9805 114.313 24.1221 113.903 24.3857C113.503 24.6396 113.156 24.9766 112.863 25.3965C112.57 25.8164 112.341 26.29 112.175 26.8174C112.018 27.335 111.94 27.8623 111.94 28.3994C111.94 28.8682 112.009 29.3223 112.145 29.7617C112.292 30.2012 112.516 30.6016 112.819 30.9629C113.132 31.3145 113.527 31.6123 114.006 31.8564C114.484 32.1006 115.065 32.2568 115.749 32.3252ZM135.217 23.873H132.668L138.395 37.0713C139.274 34.8545 140.153 32.6475 141.032 30.4502C141.921 28.2529 142.804 26.0508 143.683 23.8438L139.933 23.7852V23.2432L147.58 23.3311V23.873L144.211 23.8438L135.876 44.7764L126.545 23.873H123.849V23.3311H135.217V23.873Z" fill="#9F3287"/>
</svg>
